<svg id="Capa_1" enable-background="new 0 0 512 512" height="512" viewBox="0 0 512 512" width="512" xmlns="http://www.w3.org/2000/svg"><g><path d="m442.283 425.711c-.722 12.714-1.54 25.417-2.432 38.131-1.444 20.468-17.196 37.037-37.568 39.459-97.527 11.599-195.043 11.599-292.559 0-20.372-2.422-36.134-18.991-37.579-39.459-.892-12.714-1.699-25.417-2.432-38.131 9.627-61.278 10.062-294.959 0-339.432.733-12.714 1.54-25.417 2.432-38.131 1.445-20.457 17.207-37.027 37.579-39.448 97.515-11.6 195.031-11.6 292.558-.001 20.372 2.421 36.124 18.991 37.568 39.448.892 12.714 1.71 25.417 2.432 38.131-20.428 122.448-12.549 240.572.001 339.433z" fill="#818181"/><path d="m111.953 503.556c-.743-.074-1.487-.17-2.23-.255-20.372-2.422-36.134-18.991-37.579-39.459-.892-12.714-1.699-25.417-2.432-38.131 8.759-47.302 12.234-294.959 0-339.432.733-12.714 1.54-25.417 2.432-38.131 1.445-20.457 17.207-37.027 37.579-39.448.744-.085 1.487-.181 2.23-.255-10.42 7.467-17.419 19.331-18.375 32.831-.913 13.139-1.753 26.256-2.507 39.395-6.713 116.89-6.713 233.769 0 350.649.754 13.139 1.593 26.256 2.507 39.395.956 13.51 7.956 25.374 18.375 32.841z" fill="#454545"/><path d="m442.281 425.71c-6.72 8.93-19.13 15.33-33.85 16.59-101.62 8.73-203.24 8.73-304.87 0-4.21-.36-8.23-1.14-11.98-2.28-9.37-2.85-17.07-7.93-21.87-14.31-6.5-113.14-6.5-226.28 0-339.43 4.8-6.38 12.5-11.46 21.87-14.3 3.75-1.14 7.77-1.92 11.98-2.28 101.63-8.74 203.25-8.74 304.87 0 14.71 1.26 27.12 7.65 33.85 16.58 6.51 113.15 6.51 226.29 0 339.43z" fill="#e4f6ff"/><path d="m294.678 38.023h-77.353c-4.267 0-7.726-3.459-7.726-7.726s3.459-7.726 7.726-7.726h77.353c4.267 0 7.726 3.459 7.726 7.726s-3.459 7.726-7.726 7.726z" fill="#454545"/><path d="m91.071 431.32c.17 2.9.34 5.8.51 8.7-9.37-2.85-17.07-7.93-21.87-14.31-6.5-113.14-6.5-226.28 0-339.43 4.8-6.38 12.5-11.46 21.87-14.3-.17 2.89-.34 5.79-.51 8.69-6.71 116.89-6.71 233.77 0 350.65z" fill="#d3effb"/><g><circle cx="182.646" cy="201.664" fill="#fccf3d" r="56.385"/><path d="m314.211 211.062c-4.849 0-9.544.654-14.013 1.859-12.194-19.647-33.952-32.736-58.776-32.736-30.61 0-56.556 19.9-65.652 47.462-2.139-.308-4.324-.475-6.549-.475-25.209 0-45.645 20.436-45.645 45.645s20.436 45.645 45.645 45.645h72.201 72.788c29.658 0 53.7-24.042 53.7-53.7.001-29.658-24.041-53.7-53.699-53.7z" fill="#fff"/></g><g><g><path d="m279.527 396.924c-15.288 0-16.414-.376-17.445-.719-2.574-.858-4.496-2.802-5.276-5.335-1.341-4.362.521-6.8 5.497-13.315 4.03-5.277 11.531-15.099 24.1-33.056 3.725-5.322 6.128-10.087 7.145-14.169l.269-2.105c-.229-6.722-5.769-12.119-12.545-12.119-5.986 0-11.166 4.253-12.317 10.111-.823 4.187-4.886 6.914-9.071 6.092-4.187-.823-6.914-4.884-6.092-9.071 2.571-13.087 14.129-22.585 27.48-22.585 15.442 0 28.005 12.563 28.005 28.006 0 .327-.021.654-.062.978l-.391 3.065c-.033.258-.078.514-.137.767-1.413 6.095-4.651 12.787-9.623 19.89-9.283 13.263-15.85 22.163-20.318 28.095h.082c7.45 0 17.011-.069 25.986-.182h.099c4.222 0 7.671 3.395 7.723 7.629.054 4.267-3.361 7.769-7.629 7.823-11.255.141-19.465.2-25.48.2z" fill="#61a2f9"/></g><g><path d="m349.548 398.218c-13.894 0-25.818-10.365-27.734-24.109-.179-1.275-.271-2.588-.271-3.896 0-4.267 3.459-7.726 7.726-7.726s7.726 3.459 7.726 7.726c0 .592.04 1.182.121 1.754.859 6.159 6.203 10.798 12.432 10.798 6.922 0 12.552-5.631 12.552-12.552 0-6.922-5.631-12.552-12.552-12.552-4.268 0-7.726-3.459-7.726-7.726s3.459-7.726 7.726-7.726c6.922 0 12.552-5.631 12.552-12.552 0-6.922-5.631-12.552-12.552-12.552-5.986 0-11.166 4.253-12.317 10.111-.823 4.187-4.884 6.913-9.071 6.092-4.187-.823-6.914-4.884-6.092-9.071 2.571-13.087 14.129-22.585 27.48-22.585 15.442 0 28.005 12.563 28.005 28.005 0 7.971-3.346 15.174-8.709 20.279 5.363 5.105 8.709 12.308 8.709 20.279 0 15.44-12.564 28.003-28.005 28.003z" fill="#61a2f9"/></g></g><g fill="#454545"><path d="m402.573 133.398h-94.551c-4.268 0-7.726-3.459-7.726-7.726s3.459-7.726 7.726-7.726h94.551c4.268 0 7.726 3.459 7.726 7.726s-3.459 7.726-7.726 7.726z"/><path d="m402.573 164.915h-50.701c-4.268 0-7.726-3.459-7.726-7.726s3.459-7.726 7.726-7.726h50.701c4.268 0 7.726 3.459 7.726 7.726s-3.459 7.726-7.726 7.726z"/></g></g></svg>